<?xml version="1.0" encoding="utf-8"?>
<svg viewBox="0 0 500 500" xmlns="http://www.w3.org/2000/svg" xmlns:bx="https://boxy-svg.com" width="500px" height="500px"><defs><bx:guide x="239.962" y="105.594" angle="90"/><bx:guide x="156.098" y="131.498" angle="90"/><bx:guide x="58.411" y="395.979" angle="90"/><bx:guide x="79.23976227318933" y="361.3317708840911" angle="90"/><bx:export><bx:file format="svg" path="xtframe.svg" normalization="{&quot;removeAnimations&quot;:true}"/><bx:file format="svg" path="xtframeloading.svg"/></bx:export></defs><g transform="matrix(1.146921, 0, 0, 1.146921, -10.250033, -88.322838)" style=""><path d="M 141.091 151.204 L 200 151.204 L 80.033 400 L 8.937 438.87 L 141.091 151.204 Z" style="filter: none; fill: rgb(44, 44, 44);"/><polygon style="filter: none; fill: rgb(44, 44, 44);" points="17.751 150.893 78.657 272.461 104.973 217.153 71.255 150.968"/><polygon style="filter: none; fill: rgb(44, 44, 44);" points="204.973 400 146.306 281.174 120.406 336.1 155.069 400"/><path d="M 150.829 272.461 L 250.98 272.461 L 216.864 312.091 L 266.909 400 L 219.058 400 L 150.829 272.461" style="filter: none; fill: rgb(44, 44, 44);"/><path d="M 227.665 312.392 L 266.909 265.263 L 155.069 264.653 L 209.987 151.204 L 390.916 151.204 L 283.437 400 L 276.397 400 Z M 195.068 217.153 L 254.251 217.153 L 282.911 164.319 L 221.311 164.319 Z M 273.165 207.472 L 346.659 207.472 L 351.665 199.169 L 278.171 199.169 Z M 287.806 182.81 L 361.3 182.81 L 366.306 174.507 L 292.812 174.507 Z" style="fill: rgb(48, 151, 61);"/><path style="filter: none; fill: rgb(44, 44, 44);" d="M 323.232 441.353 L 8.937 441.353 L 82.417 406.529 L 292.072 406.706 L 401.496 150.968 L 444.887 150.968 L 323.232 441.353 Z"/><path transform="matrix(1, 0, 0, 1, 153.915497, -50.241364)" style="fill: rgb(51, 51, 51); text-transform: capitalize;"/><path d="M 117.617 343.84 L 147.399 398.523 L 87.833 398.523 L 117.617 343.84 Z" style="fill: rgb(48, 151, 61); transform-box: fill-box; transform-origin: 50.4074% 55.7084%;"/></g></svg>